<?xml version="1.0" encoding="utf-8"?>
<!-- Generator: Adobe Illustrator 16.0.0, SVG Export Plug-In . SVG Version: 6.00 Build 0)  -->
<!DOCTYPE svg PUBLIC "-//W3C//DTD SVG 1.1//EN" "http://www.w3.org/Graphics/SVG/1.1/DTD/svg11.dtd">
<svg version="1.1" id="圖層_1" xmlns="http://www.w3.org/2000/svg" xmlns:xlink="http://www.w3.org/1999/xlink" x="0px" y="0px"
	 width="150px" height="150px" viewBox="0 0 150 150" enable-background="new 0 0 150 150" xml:space="preserve">
<g>
	<path fill-rule="evenodd" clip-rule="evenodd" fill="#FFFFFF" d="M131.233,130.193c-37.419,0-74.839,0-112.258,0
		c-0.301-0.131-0.615-0.152-0.938-0.115c-0.326-0.047-0.656-0.078-0.979-0.144c-5.208-1.063-9.219-3.852-12.002-8.379
		c-1.341-2.182-2.104-4.571-2.406-7.11c0.065-0.345-0.099-0.651-0.164-0.974c0-25.804,0-51.607,0-77.411
		c0.143-0.24,0.183-0.511,0.212-0.778c0.077-0.698,0.218-1.383,0.385-2.063c1.733-7.075,7.938-12.504,15.19-13.296
		c0.32,0.033,0.635,0.013,0.936-0.117c37.263,0,74.526,0,111.79,0c0.264,0.119,0.54,0.153,0.825,0.107
		c9.361,1.033,15.392,8.912,15.688,16.245c-0.01,0.096-0.027,0.192-0.027,0.288c0,25.546,0.001,51.092,0.004,76.638
		c0,0.252,0.015,0.504,0.023,0.756c-0.014,0.623-0.056,1.244-0.177,1.856c-0.824,4.177-2.84,7.662-6.106,10.399
		c-2.659,2.229-5.723,3.559-9.171,3.987C131.773,130.042,131.496,130.064,131.233,130.193z M75.114,122.088
		c18.065,0,36.131,0.001,54.196-0.004c0.622-0.001,1.254-0.002,1.864-0.104c3.795-0.634,6.4-2.752,7.777-6.35
		c0.473-1.235,0.526-2.528,0.525-3.846c-0.015-24.573-0.011-49.147-0.011-73.722c0-0.937-0.058-1.865-0.28-2.781
		c-0.915-3.766-4.2-6.709-8.024-7.195c-0.524-0.066-1.047-0.094-1.572-0.094c-36.364,0.001-72.729,0.001-109.093-0.003
		c-0.627,0-1.248,0.037-1.861,0.147c-4.591,0.824-7.937,4.821-7.937,9.484c-0.002,24.944-0.009,49.889,0.009,74.833
		c0.002,3.178,1.338,5.756,3.86,7.695c1.835,1.409,3.947,1.941,6.233,1.94C38.906,122.085,57.011,122.088,75.114,122.088z"/>
	<path fill-rule="evenodd" clip-rule="evenodd" fill="#FFFFFF" d="M94.087,74.094c1.42,1.35,2.803,2.662,4.187,3.976
		c10.384,9.86,20.767,19.722,31.155,29.576c0.591,0.561,1.078,1.176,1.322,1.96c0.557,1.783-0.148,3.701-1.719,4.692
		c-1.538,0.972-3.56,0.799-4.926-0.443c-0.721-0.655-1.415-1.339-2.122-2.01C110.813,101.23,99.642,90.616,88.47,80.002
		c-0.142-0.134-0.283-0.267-0.427-0.401c-0.241,0.074-0.384,0.268-0.553,0.419c-3.137,2.806-6.299,5.584-9.394,8.437
		c-1.657,1.528-4.15,1.561-5.854-0.005c-3.027-2.781-6.12-5.491-9.187-8.229c-0.129-0.115-0.238-0.258-0.442-0.328
		c-0.701,0.654-1.413,1.316-2.123,1.98c-11.168,10.449-22.336,20.897-33.503,31.347c-0.214,0.199-0.424,0.403-0.644,0.595
		c-1.729,1.509-4.252,1.373-5.775-0.308c-1.49-1.644-1.385-4.183,0.257-5.736c1.754-1.66,3.524-3.304,5.288-4.955
		c10-9.358,19.999-18.718,30-28.074c0.128-0.12,0.28-0.213,0.438-0.331c-0.184-0.173-0.294-0.282-0.409-0.386
		c-11.796-10.544-23.591-21.09-35.391-31.63c-1.21-1.081-1.702-2.425-1.376-3.991c0.328-1.569,1.322-2.625,2.876-3.078
		c1.438-0.421,2.737-0.091,3.857,0.894c1.375,1.21,2.732,2.438,4.098,3.66c10.31,9.226,20.617,18.451,30.928,27.675
		c1.394,1.247,2.818,2.461,4.193,3.729c3.106,2.867,6.302,5.638,9.438,8.473c0.014,0.014,0.03,0.025,0.044,0.038
		c0.365,0.33,0.31,0.354,0.691,0.011c2.305-2.071,4.611-4.14,6.917-6.209c9.005-8.082,18.011-16.164,27.016-24.245
		c4.712-4.23,9.424-8.461,14.137-12.691c0.217-0.195,0.427-0.401,0.66-0.576c1.392-1.049,2.903-1.211,4.44-0.425
		c1.528,0.782,2.248,2.12,2.188,3.827c-0.041,1.161-0.559,2.124-1.432,2.902c-2.107,1.882-4.207,3.772-6.311,5.658
		c-9.573,8.586-19.147,17.171-28.721,25.757C94.309,73.88,94.227,73.961,94.087,74.094z"/>
</g>
</svg>
